<?xml version="1.0" encoding="UTF-8" standalone="no"?>
<!-- Created with Inkscape (http://www.inkscape.org/) -->

<svg
   width="116.9035mm"
   height="42.460331mm"
   viewBox="0 0 116.9035 42.460331"
   version="1.1"
   id="svg1"
   xml:space="preserve"
   inkscape:version="1.4 (86a8ad7, 2024-10-11)"
   sodipodi:docname="Display Image.svg"
   xmlns:inkscape="http://www.inkscape.org/namespaces/inkscape"
   xmlns:sodipodi="http://sodipodi.sourceforge.net/DTD/sodipodi-0.dtd"
   xmlns="http://www.w3.org/2000/svg"
   xmlns:svg="http://www.w3.org/2000/svg"><sodipodi:namedview
     id="namedview1"
     pagecolor="#ffffff"
     bordercolor="#666666"
     borderopacity="1.0"
     inkscape:showpageshadow="2"
     inkscape:pageopacity="0.0"
     inkscape:pagecheckerboard="0"
     inkscape:deskcolor="#d1d1d1"
     inkscape:document-units="mm"
     inkscape:zoom="3.7660693"
     inkscape:cx="220.91999"
     inkscape:cy="80.322472"
     inkscape:window-width="2560"
     inkscape:window-height="1351"
     inkscape:window-x="2551"
     inkscape:window-y="-9"
     inkscape:window-maximized="1"
     inkscape:current-layer="g1"><inkscape:page
       x="0"
       y="0"
       width="116.9035"
       height="42.460331"
       id="page1"
       margin="0"
       bleed="0" /><inkscape:page
       x="-4.477868e-08"
       y="8.4942215e-08"
       width="116.9035"
       height="42.460331"
       id="page2"
       margin="0"
       bleed="0" /></sodipodi:namedview><defs
     id="defs1" /><g
     inkscape:label="Layer 1"
     inkscape:groupmode="layer"
     id="layer1"
     transform="translate(-269.83693,-54.091419)" /><g
     id="g1"
     inkscape:groupmode="layer"
     inkscape:label="1"
     transform="matrix(0.26458333,0,0,0.26458334,-49.836919,-54.091419)"><path
       id="path59"
       d="M 119.82,0 H 0 v 330.84 h 119.82 z"
       style="fill:#cfd0af;fill-opacity:1;stroke:#000000;stroke-width:0.54;stroke-linecap:round;stroke-linejoin:round;stroke-miterlimit:10;stroke-dasharray:none;stroke-opacity:1"
       transform="matrix(0,-1.3333333,-1.3333333,0,629.84,364.56)" /><path
       id="path26"
       d="m 0,0 4.02,3.66 -4.26,4.8 -19.68,2.04 -7.2,-6.48 1.26,-0.78 1.38,-0.54 1.44,-0.24 z"
       style="fill:#000000;fill-opacity:1;stroke:#000000;stroke-width:0.54;stroke-linecap:round;stroke-linejoin:round;stroke-miterlimit:10;stroke-dasharray:none;stroke-opacity:1"
       transform="matrix(0,-1.3333333,-1.3333333,0,473.12,293.2)" /><path
       id="path27"
       d="m 0,0 7.2,6.48 -1.26,0.78 -1.38,0.48 -1.44,0.3 -23.04,2.4 -4.02,-3.6 4.26,-4.8 z"
       style="fill:#000000;fill-opacity:1;stroke:#000000;stroke-width:0.54;stroke-linecap:round;stroke-linejoin:round;stroke-miterlimit:10;stroke-dasharray:none;stroke-opacity:1"
       transform="matrix(0,-1.3333333,-1.3333333,0,515.04,249.6)" /><path
       id="path28"
       d="M 0,0 7.2,6.48 5.94,7.26 4.56,7.8 3.12,8.1 -19.92,10.5 -23.94,6.84 -19.68,2.1 Z"
       style="fill:#000000;fill-opacity:1;stroke:#000000;stroke-width:0.54;stroke-linecap:round;stroke-linejoin:round;stroke-miterlimit:10;stroke-dasharray:none;stroke-opacity:1"
       transform="matrix(0,-1.3333333,-1.3333333,0,437.2,249.6)" /><path
       id="path29"
       d="m 0,0 4.02,3.6 -4.26,4.8 -19.68,2.04 -7.2,-6.48 1.26,-0.72 1.38,-0.54 1.44,-0.3 z"
       style="fill:#000000;fill-opacity:1;stroke:#000000;stroke-width:0.54;stroke-linecap:round;stroke-linejoin:round;stroke-miterlimit:10;stroke-dasharray:none;stroke-opacity:1"
       transform="matrix(0,-1.3333333,-1.3333333,0,550.96,293.2)" /><path
       id="path31"
       d="m 0,0 4.02,3.66 -4.26,4.74 -19.68,2.1 -7.2,-6.48 1.26,-0.78 1.38,-0.54 1.44,-0.3 z"
       style="fill:#000000;fill-opacity:1;stroke:#000000;stroke-width:0.54;stroke-linecap:round;stroke-linejoin:round;stroke-miterlimit:10;stroke-dasharray:none;stroke-opacity:1"
       transform="matrix(0,-1.3333333,-1.3333333,0,317.28,293.2)" /><path
       id="path35"
       d="m 0,0 h -1.32 l -1.32,-0.18 -1.26,-0.36 -1.2,-0.6 6.72,-7.44 19.68,-2.1 4.02,3.66 -4.26,4.8 z"
       style="fill:#000000;fill-opacity:1;stroke:#000000;stroke-width:0.54;stroke-linecap:round;stroke-linejoin:round;stroke-miterlimit:10;stroke-dasharray:none;stroke-opacity:1"
       transform="matrix(0,-1.3333333,-1.3333333,0,340.48,321.6)" /><path
       id="path36"
       d="M 0,0 19.68,-2.04 23.7,1.62 19.44,6.36 -1.62,8.58 H -2.94 L -4.26,8.4 -5.52,8.04 -6.72,7.44 Z"
       style="fill:#000000;fill-opacity:1;stroke:#000000;stroke-width:0.54;stroke-linecap:round;stroke-linejoin:round;stroke-miterlimit:10;stroke-dasharray:none;stroke-opacity:1"
       transform="matrix(0,-1.3333333,-1.3333333,0,429.84,319.44)" /><path
       id="path37"
       d="M 0,0 19.68,-2.04 23.7,1.62 19.44,6.36 -1.62,8.58 -2.94,8.64 -4.26,8.46 -5.52,8.04 -6.72,7.5 Z"
       style="fill:#000000;fill-opacity:1;stroke:#000000;stroke-width:0.54;stroke-linecap:round;stroke-linejoin:round;stroke-miterlimit:10;stroke-dasharray:none;stroke-opacity:1"
       transform="matrix(0,-1.3333333,-1.3333333,0,507.76,319.44)" /><path
       id="path38"
       d="m 0,0 -6.72,7.44 -19.68,2.04 -4.02,-3.6 4.26,-4.8 21.06,-2.22 h 1.32 l 1.32,0.18 1.26,0.36 z"
       style="fill:#000000;fill-opacity:1;stroke:#000000;stroke-width:0.54;stroke-linecap:round;stroke-linejoin:round;stroke-miterlimit:10;stroke-dasharray:none;stroke-opacity:1"
       transform="matrix(0,-1.3333333,-1.3333333,0,320.56,240.96)" /><path
       id="path39"
       d="m 0,0 -4.02,-3.66 4.26,-4.74 21.06,-2.22 1.32,-0.06 1.32,0.18 1.26,0.42 1.2,0.54 -6.72,7.44 z"
       style="fill:#000000;fill-opacity:1;stroke:#000000;stroke-width:0.54;stroke-linecap:round;stroke-linejoin:round;stroke-miterlimit:10;stroke-dasharray:none;stroke-opacity:1"
       transform="matrix(0,-1.3333333,-1.3333333,0,463.68,276.16)" /><path
       id="path40"
       d="m 0,0 -4.02,-3.66 4.26,-4.74 21.06,-2.22 1.32,-0.06 1.32,0.18 1.26,0.42 1.2,0.54 -6.72,7.5 z"
       style="fill:#000000;fill-opacity:1;stroke:#000000;stroke-width:0.54;stroke-linecap:round;stroke-linejoin:round;stroke-miterlimit:10;stroke-dasharray:none;stroke-opacity:1"
       transform="matrix(0,-1.3333333,-1.3333333,0,541.6,276.16)" /><path
       id="path41"
       d="m 0,0 h 1.32 l 1.32,0.18 1.26,0.36 1.2,0.6 -6.72,7.44 -19.68,2.1 -4.02,-3.66 4.26,-4.8 z"
       style="fill:#000000;fill-opacity:1;stroke:#000000;stroke-width:0.54;stroke-linecap:round;stroke-linejoin:round;stroke-miterlimit:10;stroke-dasharray:none;stroke-opacity:1"
       transform="matrix(0,-1.3333333,-1.3333333,0,400,247.76)" /><path
       id="path42"
       d="M 0,0 -6.72,7.44 -7.44,6.36 -7.92,5.1 -8.28,3.84 -8.34,2.52 V -19.5 l 0.12,-1.44 0.36,-1.44 0.66,-1.32 7.2,6.48 z"
       style="fill:#000000;fill-opacity:1;stroke:#000000;stroke-width:0.54;stroke-linecap:round;stroke-linejoin:round;stroke-miterlimit:10;stroke-dasharray:none;stroke-opacity:1"
       transform="matrix(0,-1.3333333,-1.3333333,0,510.72,322.72)" /><path
       id="path43"
       d="M 0,0 -6.72,7.44 -7.44,6.3 -7.92,5.1 -8.28,3.84 -8.34,2.52 V -19.5 l 0.12,-1.44 0.36,-1.44 0.66,-1.32 7.2,6.48 z"
       style="fill:#000000;fill-opacity:1;stroke:#000000;stroke-width:0.54;stroke-linecap:round;stroke-linejoin:round;stroke-miterlimit:10;stroke-dasharray:none;stroke-opacity:1"
       transform="matrix(0,-1.3333333,-1.3333333,0,432.8,322.72)" /><path
       id="path45"
       d="m 0,0 0.12,-1.5 0.36,-1.38 0.66,-1.38 7.2,6.48 V 19.5 L 1.62,26.94 0.9,25.8 0.42,24.6 0.06,23.28 0,21.96 Z"
       style="fill:#000000;fill-opacity:1;stroke:#000000;stroke-width:0.54;stroke-linecap:round;stroke-linejoin:round;stroke-miterlimit:10;stroke-dasharray:none;stroke-opacity:1"
       transform="matrix(0,-1.3333333,-1.3333333,0,380.88,333.84)" /><path
       id="path46"
       d="m 0,0 v -17.28 l 6.72,-7.44 0.72,1.14 0.48,1.2 0.36,1.32 0.06,1.32 V 2.22 L 8.22,3.72 7.86,5.16 7.2,6.48 Z"
       style="fill:#000000;fill-opacity:1;stroke:#000000;stroke-width:0.54;stroke-linecap:round;stroke-linejoin:round;stroke-miterlimit:10;stroke-dasharray:none;stroke-opacity:1"
       transform="matrix(0,-1.3333333,-1.3333333,0,362.56,246.64)" /><path
       id="path47"
       d="m 0,0 6.72,-7.44 0.72,1.08 0.48,1.26 0.36,1.26 0.06,1.32 V 19.5 L 8.22,20.94 7.86,22.38 7.2,23.7 0,17.22 Z"
       style="fill:#000000;fill-opacity:1;stroke:#000000;stroke-width:0.54;stroke-linecap:round;stroke-linejoin:round;stroke-miterlimit:10;stroke-dasharray:none;stroke-opacity:1"
       transform="matrix(0,-1.3333333,-1.3333333,0,541.36,246.64)" /><path
       id="path48"
       d="m 0,0 6.72,-7.5 0.72,1.14 0.48,1.26 0.36,1.26 0.06,1.32 V 19.5 L 8.22,20.94 7.86,22.38 7.2,23.7 0,17.22 Z"
       style="fill:#000000;fill-opacity:1;stroke:#000000;stroke-width:0.54;stroke-linecap:round;stroke-linejoin:round;stroke-miterlimit:10;stroke-dasharray:none;stroke-opacity:1"
       transform="matrix(0,-1.3333333,-1.3333333,0,463.44,246.64)" /><path
       id="path51"
       d="M 0,0 -4.32,4.8 -8.34,1.14 v -17.22 l 4.32,-4.8 4.02,3.66 z"
       style="fill:#000000;fill-opacity:1;stroke:#000000;stroke-width:0.54;stroke-linecap:round;stroke-linejoin:round;stroke-miterlimit:10;stroke-dasharray:none;stroke-opacity:1"
       transform="matrix(0,-1.3333333,-1.3333333,0,359.52,279.12)" /><path
       id="path54"
       d="M 0,0 -8.34,0.9 V -7.5 L 0,-8.4 Z"
       style="fill:#000000;fill-opacity:1;stroke:#000000;stroke-width:0.54;stroke-linecap:round;stroke-linejoin:round;stroke-miterlimit:10;stroke-dasharray:none;stroke-opacity:1"
       transform="matrix(0,-1.3333333,-1.3333333,0,322.88,322.72)" /><path
       id="path56"
       d="M 0,0 8.34,-0.84 V 7.5 L 0,8.4 Z"
       style="fill:#000000;fill-opacity:1;stroke:#000000;stroke-width:0.54;stroke-linecap:round;stroke-linejoin:round;stroke-miterlimit:10;stroke-dasharray:none;stroke-opacity:1"
       transform="matrix(0,-1.3333333,-1.3333333,0,416.72,277.52)" /><path
       id="path57"
       d="M 0,0 V 8.4 L -8.34,9.24 V 0.9 Z"
       style="fill:#000000;fill-opacity:1;stroke:#000000;stroke-width:0.54;stroke-linecap:round;stroke-linejoin:round;stroke-miterlimit:10;stroke-dasharray:none;stroke-opacity:1"
       transform="matrix(0,-1.3333333,-1.3333333,0,489.84,322.72)" /><path
       id="path58"
       d="m 0,0 8.34,-0.84 v 8.4 L 0,8.4 Z"
       style="fill:#000000;fill-opacity:1;stroke:#000000;stroke-width:0.54;stroke-linecap:round;stroke-linejoin:round;stroke-miterlimit:10;stroke-dasharray:none;stroke-opacity:1"
       transform="matrix(0,-1.3333333,-1.3333333,0,413.76,305.84)" /><path
       id="path60"
       d="M 0,0 Z"
       style="fill:none;stroke:#000000;stroke-width:0.54;stroke-linecap:round;stroke-linejoin:round;stroke-miterlimit:10;stroke-dasharray:none;stroke-opacity:1"
       transform="matrix(0,-1.3333333,-1.3333333,0,629.84,364.56)" /><text
       xml:space="preserve"
       style="font-size:16.6786px;line-height:1.25;font-family:sans-serif;stroke-width:0.416965"
       x="496.10861"
       y="356.47183"
       id="text2-2"><tspan
         sodipodi:role="line"
         id="tspan2-4"
         x="496.10861"
         y="356.47183"
         style="stroke-width:0.416965" /></text><text
       xml:space="preserve"
       style="font-size:11.2875px;line-height:1.25;font-family:sans-serif;stroke-width:0.282189"
       x="472.21338"
       y="350.37784"
       id="text2"><tspan
         sodipodi:role="line"
         id="tspan2"
         x="472.21338"
         y="350.37784"
         style="stroke-width:0.282189">DP3</tspan></text><text
       xml:space="preserve"
       style="font-size:11.2875px;line-height:1.25;font-family:sans-serif;stroke-width:0.282189"
       x="316.53769"
       y="350.37784"
       id="text2-1"><tspan
         sodipodi:role="line"
         id="tspan2-1"
         x="316.53769"
         y="350.37784"
         style="stroke-width:0.282189">DP1</tspan></text></g></svg>
